<svg width="29" height="28" viewBox="0 0 29 28" fill="none" xmlns="http://www.w3.org/2000/svg">
<path d="M13.8816 4.48118C14.0457 4.31732 14.2681 4.22528 14.5 4.22528C14.7318 4.22528 14.9542 4.31732 15.1183 4.48118L25.2566 14.6195C25.3374 14.703 25.434 14.7697 25.5408 14.8155C25.6475 14.8613 25.7624 14.8854 25.8785 14.8863C25.9947 14.8873 26.1099 14.8651 26.2174 14.821C26.325 14.777 26.4226 14.712 26.5047 14.6298C26.5869 14.5476 26.6518 14.4498 26.6957 14.3423C26.7397 14.2347 26.7618 14.1195 26.7607 14.0033C26.7596 13.8871 26.7354 13.7723 26.6895 13.6656C26.6436 13.5589 26.5769 13.4624 26.4933 13.3817L16.3561 3.24334C16.1124 2.99959 15.823 2.80623 15.5045 2.67431C15.186 2.54239 14.8447 2.47449 14.5 2.47449C14.1553 2.47449 13.8139 2.54239 13.4954 2.67431C13.1769 2.80623 12.8876 2.99959 12.6438 3.24334L2.50547 13.3817C2.42194 13.4624 2.35533 13.559 2.30952 13.6658C2.26371 13.7726 2.23963 13.8874 2.23868 14.0036C2.23772 14.1198 2.25992 14.235 2.30396 14.3425C2.34801 14.45 2.41303 14.5477 2.49522 14.6298C2.57742 14.7119 2.67514 14.7768 2.7827 14.8208C2.89025 14.8647 3.00548 14.8868 3.12166 14.8857C3.23784 14.8847 3.35265 14.8605 3.45938 14.8146C3.56611 14.7687 3.66263 14.702 3.74331 14.6183L13.8816 4.48118Z" fill="#F2F2FA"/>
<path d="M14.5 6.33734L24.0188 15.8562C24.0538 15.8912 24.0888 15.9238 24.125 15.9565V23.1875C24.125 24.395 23.145 25.375 21.9375 25.375H18C17.7679 25.375 17.5454 25.2828 17.3813 25.1187C17.2172 24.9546 17.125 24.7321 17.125 24.5V19.25C17.125 19.0179 17.0328 18.7954 16.8687 18.6313C16.7046 18.4672 16.4821 18.375 16.25 18.375H12.75C12.5179 18.375 12.2954 18.4672 12.1313 18.6313C11.9672 18.7954 11.875 19.0179 11.875 19.25V24.5C11.875 24.7321 11.7828 24.9546 11.6187 25.1187C11.4546 25.2828 11.2321 25.375 11 25.375H7.0625C6.48234 25.375 5.92594 25.1445 5.5157 24.7343C5.10547 24.3241 4.875 23.7677 4.875 23.1875V15.9565C4.9113 15.924 4.9467 15.8906 4.98117 15.8562L14.5 6.33734Z" fill="#F2F2FA"/>
</svg>
