<svg width="27" height="20" viewBox="0 0 27 20" fill="none" xmlns="http://www.w3.org/2000/svg">
<path fill-rule="evenodd" clip-rule="evenodd" d="M13.3 2.125C14.7152 2.125 16.1175 2.17866 17.5059 2.2825C18.4152 2.34896 19.2703 2.74028 19.915 3.385C20.5597 4.02971 20.9511 4.88482 21.0175 5.79416C21.0689 6.47433 21.1074 7.15916 21.1342 7.84633L19.1684 5.88166C19.0883 5.7957 18.9917 5.72674 18.8843 5.67892C18.777 5.6311 18.6611 5.60538 18.5436 5.60331C18.4261 5.60123 18.3094 5.62285 18.2005 5.66685C18.0915 5.71086 17.9926 5.77636 17.9095 5.85945C17.8264 5.94254 17.7609 6.04151 17.7169 6.15047C17.6729 6.25942 17.6513 6.37612 17.6533 6.49361C17.6554 6.61109 17.6811 6.72696 17.7289 6.83429C17.7768 6.94162 17.8457 7.03822 17.9317 7.11833L21.4317 10.6183C21.5958 10.7822 21.8181 10.8742 22.05 10.8742C22.2819 10.8742 22.5043 10.7822 22.6684 10.6183L26.1684 7.11833C26.3229 6.95246 26.4071 6.73307 26.4031 6.50639C26.3991 6.2797 26.3072 6.06342 26.1469 5.90311C25.9866 5.74279 25.7703 5.65096 25.5436 5.64696C25.3169 5.64296 25.0976 5.7271 24.9317 5.88166L22.8877 7.9245C22.8609 7.16616 22.8177 6.4125 22.7617 5.66233C22.6635 4.3359 22.0922 3.08886 21.1517 2.14836C20.2112 1.20787 18.9641 0.636499 17.6377 0.538331C14.75 0.320475 11.85 0.320475 8.96236 0.538331C7.63592 0.636499 6.38889 1.20787 5.44839 2.14836C4.5079 3.08886 3.93653 4.3359 3.83836 5.66233C3.81852 5.92366 3.79986 6.18383 3.78469 6.44633C3.7758 6.56202 3.79001 6.67833 3.8265 6.78848C3.86298 6.89863 3.921 7.00042 3.9972 7.08793C4.07339 7.17544 4.16623 7.24693 4.27031 7.29822C4.37439 7.34952 4.48763 7.3796 4.60345 7.38672C4.71926 7.39383 4.83534 7.37784 4.94491 7.33968C5.05449 7.30152 5.15538 7.24194 5.24172 7.16441C5.32806 7.08689 5.39811 6.99297 5.44781 6.88812C5.4975 6.78326 5.52585 6.66957 5.53119 6.55366C5.54636 6.3005 5.56386 6.04733 5.58252 5.79416C5.64899 4.88482 6.0403 4.02971 6.68502 3.385C7.32974 2.74028 8.18485 2.34896 9.09419 2.2825C10.4825 2.1775 11.8849 2.125 13.3 2.125ZM5.16836 9.38166C5.00429 9.2178 4.7819 9.12577 4.55002 9.12577C4.31815 9.12577 4.09575 9.2178 3.93169 9.38166L0.431691 12.8817C0.345723 12.9618 0.276771 13.0584 0.228947 13.1657C0.181123 13.273 0.155407 13.3889 0.153334 13.5064C0.151262 13.6239 0.172874 13.7406 0.216881 13.8495C0.260889 13.9585 0.326391 14.0575 0.40948 14.1405C0.492568 14.2236 0.591541 14.2891 0.700494 14.3331C0.809447 14.3771 0.926148 14.3988 1.04363 14.3967C1.16112 14.3946 1.27699 14.3689 1.38432 14.3211C1.49165 14.2733 1.58825 14.2043 1.66836 14.1183L3.71236 12.0755C3.73919 12.8338 3.78236 13.5875 3.83836 14.3377C3.93653 15.6641 4.5079 16.9111 5.44839 17.8516C6.38889 18.7921 7.63592 19.3635 8.96236 19.4617C11.85 19.6796 14.75 19.6796 17.6377 19.4617C18.9641 19.3635 20.2112 18.7921 21.1517 17.8516C22.0922 16.9111 22.6635 15.6641 22.7617 14.3377C22.7815 14.0775 22.799 13.8162 22.8154 13.5537C22.8259 13.3242 22.7458 13.0997 22.5923 12.9288C22.4388 12.7578 22.2243 12.6541 21.995 12.64C21.7656 12.6259 21.54 12.7026 21.3667 12.8534C21.1934 13.0043 21.0865 13.2173 21.0689 13.4463C21.0537 13.6995 21.0362 13.9527 21.0175 14.2058C20.9511 15.1152 20.5597 15.9703 19.915 16.615C19.2703 17.2597 18.4152 17.651 17.5059 17.7175C14.7059 17.9286 11.8941 17.9286 9.09419 17.7175C8.18485 17.651 7.32974 17.2597 6.68502 16.615C6.0403 15.9703 5.64899 15.1152 5.58252 14.2058C5.53102 13.5226 5.49212 12.8384 5.46586 12.1537L7.43169 14.1183C7.59756 14.2729 7.81695 14.357 8.04363 14.353C8.27032 14.349 8.4866 14.2572 8.64692 14.0969C8.80723 13.9366 8.89906 13.7203 8.90306 13.4936C8.90706 13.2669 8.82292 13.0475 8.66836 12.8817L5.16836 9.38166Z" fill="#F2F2FA"/>
</svg>
