<svg width="29" height="28" viewBox="0 0 29 28" fill="none" xmlns="http://www.w3.org/2000/svg">
<path fill-rule="evenodd" clip-rule="evenodd" d="M9.4499 7C9.4499 5.60761 10.003 4.27226 10.9876 3.28769C11.9722 2.30312 13.3075 1.75 14.6999 1.75C16.0923 1.75 17.4276 2.30312 18.4122 3.28769C19.3968 4.27226 19.9499 5.60761 19.9499 7C19.9499 8.39239 19.3968 9.72774 18.4122 10.7123C17.4276 11.6969 16.0923 12.25 14.6999 12.25C13.3075 12.25 11.9722 11.6969 10.9876 10.7123C10.003 9.72774 9.4499 8.39239 9.4499 7ZM5.07607 23.4558C5.11541 20.9294 6.14665 18.5197 7.94719 16.747C9.74773 14.9743 12.1731 13.9807 14.6999 13.9807C17.2267 13.9807 19.6521 14.9743 21.4526 16.747C23.2532 18.5197 24.2844 20.9294 24.3237 23.4558C24.3268 23.6259 24.2802 23.7932 24.1896 23.9372C24.0991 24.0812 23.9685 24.1957 23.8139 24.2667C20.9546 25.5777 17.8454 26.2543 14.6999 26.25C11.4496 26.25 8.3614 25.5407 5.5859 24.2667C5.4313 24.1957 5.30074 24.0812 5.21019 23.9372C5.11964 23.7932 5.07303 23.6259 5.07607 23.4558Z" fill="#F2F2FA"/>
</svg>
