<svg width="33" height="32" viewBox="0 0 33 32" fill="none" xmlns="http://www.w3.org/2000/svg">
<rect x="0.5" width="32" height="32" rx="16" fill="#232336"/>
<g clip-path="url(#clip0_20_2218)">
<path fill-rule="evenodd" clip-rule="evenodd" d="M9.73144 17.2295C10.0589 16.8661 10.6124 16.8429 10.9678 17.1777L15.625 21.5645L15.625 8.39474C15.625 7.90059 16.0168 7.5 16.5 7.5C16.9832 7.5 17.375 7.90059 17.375 8.39474L17.375 21.5645L22.0322 17.1777C22.3876 16.8429 22.9411 16.8661 23.2686 17.2295C23.596 17.593 23.5733 18.159 23.2178 18.4938L17.0928 24.2633C16.7578 24.5789 16.2422 24.5789 15.9072 24.2633L9.78217 18.4938C9.42674 18.159 9.40403 17.593 9.73144 17.2295Z" fill="#6161D6"/>
</g>
<defs>
<clipPath id="clip0_20_2218">
<rect width="17" height="16" fill="white" transform="translate(8.5 24.5) rotate(-90)"/>
</clipPath>
</defs>
</svg>
