<svg
  width="29"
  height="28"
  viewBox="0 0 29 28"
  fill="none"
  xmlns="http://www.w3.org/2000/svg"
>
<path
    d="M13.1081 10.2037C13.3729 9.99365 13.6879 9.84082 14.0251 9.74399V13.0048C13.6923 12.9137 13.3807 12.7579 13.1081 12.5463C12.6484 12.1812 12.4711 11.7518 12.4711 11.375C12.4711 10.9982 12.6484 10.5688 13.1081 10.2037ZM15.7751 18.2723V14.9777C16.1799 15.0768 16.5497 15.2437 16.8496 15.4688C17.3477 15.8422 17.5251 16.2692 17.5251 16.625C17.5251 16.9808 17.3477 17.4078 16.8496 17.7812C16.528 18.0151 16.1625 18.1829 15.7751 18.2723Z"
    fill="#F2F2FA"
  />
<path
    fill-rule="evenodd"
    clip-rule="evenodd"
    d="M14.9 2.625C8.61752 2.625 3.52502 7.7175 3.52502 14C3.52502 20.2825 8.61752 25.375 14.9 25.375C21.1825 25.375 26.275 20.2825 26.275 14C26.275 7.7175 21.1825 2.625 14.9 2.625ZM15.775 7C15.775 6.76794 15.6828 6.54538 15.5187 6.38128C15.3546 6.21719 15.1321 6.125 14.9 6.125C14.668 6.125 14.4454 6.21719 14.2813 6.38128C14.1172 6.54538 14.025 6.76794 14.025 7V7.952C13.2934 8.07512 12.6038 8.37821 12.0184 8.834C11.1877 9.49433 10.721 10.409 10.721 11.375C10.721 12.3422 11.1877 13.2557 12.0195 13.916C12.6052 14.3827 13.3052 14.6708 14.025 14.798V18.2723C13.6375 18.1825 13.272 18.0155 12.9505 17.7812L11.925 17.0112C11.8331 16.9422 11.7285 16.8921 11.6172 16.8635C11.5059 16.835 11.39 16.8287 11.2763 16.845C11.0465 16.8778 10.8393 17.0005 10.7 17.1862C10.5608 17.3718 10.501 17.6052 10.5338 17.8349C10.5666 18.0646 10.6894 18.2719 10.875 18.4112L11.9005 19.1812C12.5224 19.6478 13.2644 19.9337 14.025 20.0562V21C14.025 21.2321 14.1172 21.4546 14.2813 21.6187C14.4454 21.7828 14.668 21.875 14.9 21.875C15.1321 21.875 15.3546 21.7828 15.5187 21.6187C15.6828 21.4546 15.775 21.2321 15.775 21V20.055C16.5434 19.9395 17.2723 19.6397 17.8995 19.1812C18.7687 18.529 19.275 17.6132 19.275 16.625C19.275 15.6368 18.7687 14.721 17.8995 14.0688C17.2725 13.6098 16.5435 13.3096 15.775 13.1938V9.74633C16.1134 9.842 16.4272 9.99483 16.692 10.2048L17.1762 10.5898C17.358 10.7342 17.5897 10.8004 17.8203 10.7739C18.0509 10.7474 18.2615 10.6305 18.4059 10.4487C18.5502 10.2669 18.6164 10.0352 18.5899 9.8046C18.5635 9.57399 18.4465 9.36334 18.2647 9.219L17.7805 8.834C17.1953 8.3788 16.5062 8.07612 15.775 7.95317V7Z"
    fill="#F2F2FA"
  />
</svg>
