<svg width="29" height="28" viewBox="0 0 29 28" fill="none" xmlns="http://www.w3.org/2000/svg">
<path d="M11.0376 3.49999C10.4574 3.49999 9.90104 3.73046 9.4908 4.1407C9.08056 4.55093 8.8501 5.10733 8.8501 5.68749C8.8501 6.26765 9.08056 6.82405 9.4908 7.23429C9.90104 7.64453 10.4574 7.87499 11.0376 7.87499H13.2251V13.125H4.0376C3.45744 13.125 2.90104 12.8945 2.4908 12.4843C2.08057 12.0741 1.8501 11.5177 1.8501 10.9375V10.0625C1.8501 8.85383 2.8301 7.87499 4.0376 7.87499H7.76276C7.19554 7.03237 6.9759 6.00315 7.14972 5.00239C7.32353 4.00162 7.87737 3.10675 8.69551 2.50474C9.51364 1.90274 10.5328 1.6402 11.5399 1.77196C12.5471 1.90373 13.4644 2.41962 14.1001 3.21183C14.7358 2.41962 15.6531 1.90373 16.6603 1.77196C17.6674 1.6402 18.6866 1.90274 19.5047 2.50474C20.3228 3.10675 20.8767 4.00162 21.0505 5.00239C21.2243 6.00315 21.0047 7.03237 20.4374 7.87499H25.0376C26.2451 7.87499 27.2251 8.85499 27.2251 10.0625V10.9375C27.2251 12.1462 26.2451 13.125 25.0376 13.125H14.9751V7.87499H17.1626C17.5952 7.87499 18.0182 7.7467 18.3779 7.50633C18.7376 7.26597 19.018 6.92433 19.1836 6.52461C19.3492 6.1249 19.3925 5.68507 19.3081 5.26073C19.2237 4.8364 19.0153 4.44662 18.7094 4.1407C18.4035 3.83477 18.0137 3.62643 17.5894 3.54203C17.165 3.45762 16.7252 3.50094 16.3255 3.66651C15.9258 3.83207 15.5841 4.11245 15.3438 4.47218C15.1034 4.83192 14.9751 5.25485 14.9751 5.68749V7.87499H13.2251V5.68749C13.2251 4.47883 12.2451 3.49999 11.0376 3.49999ZM13.2251 14.875H3.6001V22.75C3.6001 23.4462 3.87666 24.1139 4.36894 24.6061C4.86123 25.0984 5.5289 25.375 6.2251 25.375H13.2251V14.875ZM14.9751 14.875V25.375H22.8501C23.5463 25.375 24.214 25.0984 24.7063 24.6061C25.1985 24.1139 25.4751 23.4462 25.4751 22.75V14.875H14.9751Z" fill="#F2F2FA"/>
</svg>
