<svg width="27" height="24" viewBox="0 0 27 24" fill="none" xmlns="http://www.w3.org/2000/svg">
<path d="M13.5088 23.0977C7.25098 23.0977 2.06543 17.9121 2.06543 11.6543C2.06543 5.3877 7.24219 0.202148 13.5 0.202148C19.7666 0.202148 24.9609 5.3877 24.9609 11.6543C24.9609 17.9121 19.7754 23.0977 13.5088 23.0977ZM13.5088 21.4629C18.9492 21.4629 23.3262 17.0859 23.3174 11.6543C23.3086 6.21387 18.9404 1.8457 13.5 1.8457C8.06836 1.8457 3.70898 6.21387 3.70898 11.6543C3.70898 17.0859 8.07715 21.4629 13.5088 21.4629ZM8.25293 13.2363C7.37402 13.2363 6.66211 12.5244 6.66211 11.6543C6.66211 10.7842 7.37402 10.0723 8.25293 10.0723C9.11426 10.0723 9.82617 10.7842 9.82617 11.6543C9.82617 12.5244 9.12305 13.2363 8.25293 13.2363ZM13.5 13.2363C12.6211 13.2363 11.918 12.5244 11.918 11.6543C11.918 10.7842 12.6211 10.0723 13.5 10.0723C14.3701 10.0723 15.082 10.7842 15.082 11.6543C15.082 12.5244 14.3701 13.2363 13.5 13.2363ZM18.7559 13.2363C17.877 13.2363 17.165 12.5244 17.165 11.6543C17.165 10.7842 17.877 10.0723 18.7559 10.0723C19.626 10.0723 20.3379 10.7842 20.3379 11.6543C20.3379 12.5244 19.626 13.2363 18.7559 13.2363Z" fill="white"/>
</svg>
